<svg xmlns="http://www.w3.org/2000/svg" viewBox="0 0 900 1100" role="img" aria-labelledby="title desc">
  <title id="title">Ảnh minh họa hero thời trang</title>
  <desc id="desc">Minh họa outfit thời trang tối giản dùng cho dữ liệu mẫu.</desc>
  <defs>
    <linearGradient id="bg" x1="0" x2="1" y1="0" y2="1">
      <stop offset="0" stop-color="#f5f5f4"/>
      <stop offset="0.55" stop-color="#ffffff"/>
      <stop offset="1" stop-color="#d4f0e2"/>
    </linearGradient>
    <linearGradient id="dark" x1="0" x2="1" y1="0" y2="1">
      <stop offset="0" stop-color="#111827"/>
      <stop offset="1" stop-color="#0f9a58"/>
    </linearGradient>
  </defs>
  <rect width="900" height="1100" rx="80" fill="url(#bg)"/>
  <circle cx="690" cy="180" r="145" fill="#14b86a" opacity="0.18"/>
  <circle cx="220" cy="910" r="190" fill="#111827" opacity="0.08"/>
  <rect x="280" y="140" width="330" height="760" rx="160" fill="#ffffff" opacity="0.78"/>
  <circle cx="450" cy="245" r="78" fill="#d6b99d"/>
  <path d="M350 370h200l72 260H278l72-260Z" fill="url(#dark)"/>
  <path d="M360 405h180l-38 320H398l-38-320Z" fill="#f8fafc"/>
  <path d="M279 628h343l-45 270H323l-44-270Z" fill="#1f2937"/>
  <path d="M323 898h105v92H285c-16 0-24-20-12-31l50-61Z" fill="#111827"/>
  <path d="M472 898h105l50 61c12 11 4 31-12 31H472v-92Z" fill="#111827"/>
  <path d="M278 630 178 760" stroke="#111827" stroke-width="46" stroke-linecap="round" opacity="0.9"/>
  <path d="M622 630 730 742" stroke="#111827" stroke-width="46" stroke-linecap="round" opacity="0.9"/>
  <rect x="95" y="735" width="170" height="82" rx="41" fill="#ffffff"/>
  <rect x="647" y="720" width="170" height="82" rx="41" fill="#ffffff"/>
  <text x="450" y="1038" text-anchor="middle" font-family="Arial, sans-serif" font-size="34" font-weight="800" fill="#111827" letter-spacing="6">THỜI TRANG DATN</text>
</svg>
